<?xml version="1.0" encoding="utf-8"?>
<svg viewBox="160.376 190.376 138.204 45.487" width="138.204pt" height="45.487pt" xmlns="http://www.w3.org/2000/svg">
  <g id="g72">
    <path id="path6" d="M 214.1366,208.0588 L 212.3222,212.9779 215.9579,212.9779 214.1366,208.0588 Z M 213.3819,206.7415 L 214.8981,206.7415 218.6648,216.6249 217.2752,216.6249 216.3736,214.0896 211.92,214.0896 211.0184,216.6249 209.6084,216.6249 213.3819,206.7415 Z M 224.7927,211.9927 C 225.0797,212.0899 225.3599,212.2978 225.631,212.6141 225.9022,212.9327 226.1733,213.3688 226.4467,213.9247 L 227.8025,216.6249 226.3677,216.6249 225.1045,214.0896 C 224.7769,213.4276 224.4606,212.9892 224.1533,212.7723 223.8482,212.5576 223.4302,212.4492 222.8992,212.4492 L 221.444,212.4492 221.444,216.6249 220.1019,216.6249 220.1019,206.7415 223.1252,206.7415 C 224.255,206.7415 225.0978,206.9788 225.6536,207.451 226.2095,207.9233 226.4874,208.635 226.4874,209.5886 226.4874,210.2122 226.3428,210.7274 226.0536,211.1386 225.7643,211.5499 225.3441,211.8346 224.7927,211.9927 Z M 221.444,207.8397 L 221.444,211.351 223.1252,211.351 C 223.7691,211.351 224.255,211.2019 224.5848,210.9036 224.9125,210.6054 225.0774,210.167 225.0774,209.5886 225.0774,209.0101 224.9125,208.574 224.5848,208.2803 224.255,207.9865 223.7691,207.8397 223.1252,207.8397 L 221.444,207.8397 Z M 236.2487,207.5007 L 236.2487,208.9107 C 235.7991,208.4927 235.3178,208.1809 234.8094,207.973 234.2987,207.7674 233.7564,207.6634 233.1825,207.6634 232.0527,207.6634 231.1873,208.0091 230.5885,208.6983 229.9875,209.3897 229.6869,210.3885 229.6869,211.6922 229.6869,212.9937 229.9875,213.9902 230.5885,214.6816 231.1873,215.3708 232.0527,215.7165 233.1825,215.7165 233.7564,215.7165 234.2987,215.6126 234.8094,215.407 235.3178,215.1991 235.7991,214.8873 236.2487,214.4692 L 236.2487,215.8656 C 235.781,216.182 235.2861,216.4192 234.7619,216.5774 234.24,216.7356 233.6864,216.8147 233.1034,216.8147 231.6076,216.8147 230.4281,216.356 229.5672,215.4409 228.7063,214.5257 228.277,213.2762 228.277,211.6922 228.277,210.106 228.7063,208.8542 229.5672,207.9391 230.4281,207.0239 231.6076,206.5653 233.1034,206.5653 233.6954,206.5653 234.2535,206.6421 234.7755,206.798 235.2975,206.9539 235.79,207.1889 236.2487,207.5007 Z M 238.1626,206.7415 L 239.5047,206.7415 239.5047,212.7452 C 239.5047,213.8049 239.6968,214.5664 240.0809,215.0319 240.4651,215.4973 241.0887,215.7301 241.9496,215.7301 242.806,215.7301 243.4251,215.4973 243.8092,215.0319 244.1934,214.5664 244.3854,213.8049 244.3854,212.7452 L 244.3854,206.7415 245.7276,206.7415 245.7276,212.9101 C 245.7276,214.1981 245.409,215.172 244.7718,215.8295 244.1346,216.487 243.1924,216.8147 241.9496,216.8147 240.7001,216.8147 239.7556,216.487 239.1184,215.8295 238.4812,215.172 238.1626,214.1981 238.1626,212.9101 L 238.1626,206.7415 Z M 254.1603,207.0669 L 254.1603,208.3684 C 253.6519,208.1266 253.1751,207.9459 252.7232,207.8284 252.2736,207.7086 251.8397,207.6499 251.4217,207.6499 250.6919,207.6499 250.1315,207.7899 249.7361,208.0724 249.3406,208.3549 249.1441,208.757 249.1441,209.2767 249.1441,209.7128 249.2751,210.0427 249.5372,210.2642 249.7993,210.4879 250.2987,210.6664 251.0308,210.8042 L 251.8375,210.9692 C 252.8362,211.159 253.5705,211.4934 254.0451,211.9724 254.5196,212.4514 254.7568,213.0932 254.7568,213.8953 254.7568,214.8534 254.436,215.5787 253.7942,216.0735 253.1525,216.5684 252.2126,216.8147 250.972,216.8147 250.5043,216.8147 250.0072,216.7627 249.4807,216.6565 248.952,216.5526 248.4074,216.3966 247.8425,216.191 L 247.8425,214.8082 C 248.3848,215.1132 248.9158,215.3437 249.4378,215.4973 249.9575,215.6533 250.4682,215.7301 250.972,215.7301 251.7358,215.7301 252.3233,215.5809 252.739,215.2804 253.1525,214.9799 253.3604,214.5506 253.3604,213.9947 253.3604,213.5089 253.2113,213.1293 252.913,212.8559 252.6147,212.5825 252.1267,212.3769 251.4466,212.239 L 250.6331,212.0809 C 249.6366,211.882 248.9158,211.5725 248.4707,211.1499 248.0256,210.7251 247.8019,210.1376 247.8019,209.3829 247.8019,208.5107 248.1092,207.8216 248.7238,207.32 249.3406,206.8161 250.188,206.5653 251.268,206.5653 251.7313,206.5653 252.2035,206.6059 252.6848,206.6895 253.1661,206.7731 253.6564,206.8997 254.1603,207.0669 Z M 263.4518,206.7415 L 265.4492,206.7415 267.9709,213.4682 270.5039,206.7415 272.4946,206.7415 272.4946,216.6249 271.193,216.6249 271.193,207.9459 268.6443,214.7268 267.3021,214.7268 264.7533,207.9459 264.7533,216.6249 263.4518,216.6249 263.4518,206.7415 Z M 275.1496,206.7415 L 281.3995,206.7415 281.3995,207.8668 276.4917,207.8668 276.4917,210.7952 281.1962,210.7952 281.1962,211.9204 276.4917,211.9204 276.4917,215.4996 281.5215,215.4996 281.5215,216.6249 275.1496,216.6249 275.1496,206.7415 Z M 285.0577,207.8397 L 285.0577,215.5267 286.6733,215.5267 C 288.0359,215.5267 289.0346,215.2171 289.6673,214.6003 290.2999,213.9812 290.6163,213.0073 290.6163,211.6742 290.6163,210.35 290.2999,209.3784 289.6673,208.7638 289.0346,208.147 288.0358,207.8397 286.6733,207.8397 L 285.0577,207.8397 Z M 283.7156,206.7415 L 286.4677,206.7415 C 288.3816,206.7415 289.787,207.1392 290.6818,207.9368 291.5789,208.7322 292.0263,209.9795 292.0263,211.6742 292.0263,213.3779 291.5766,214.6274 290.6773,215.4273 289.7757,216.2249 288.3724,216.6249 286.4677,216.6249 L 283.7156,216.6249 283.7156,206.7415 Z" style="fill-rule:evenodd;fill:#000000;"/>
    <g id="g18">
      <path id="path14" d="M 203.8194,221.9911 L 203.8194,222.2733 C 203.6392,222.1732 203.5257,222.1169 203.4819,222.1055 203.3513,222.074 203.1891,222.0559 202.9956,222.0501 202.7009,222.0501 202.4702,222.1083 202.3024,222.2256 202.1746,222.3229 202.1098,222.4888 202.1098,222.7233 202.1098,222.8816 202.1708,223.0056 202.2919,223.0952 202.4196,223.1915 202.6037,223.2659 202.842,223.3183 L 203.0175,223.3574 C 203.314,223.4223 203.5381,223.5148 203.6907,223.634 203.8681,223.7703 203.9615,223.9467 203.9701,224.1651 203.9701,224.4606 203.8833,224.6924 203.7079,224.8602 203.5219,225.0261 203.2216,225.1091 202.8087,225.1091 202.577,225.1091 202.4025,225.0929 202.2833,225.0614 202.1393,225.0204 201.9886,224.9708 201.8304,224.9136 L 201.8304,224.5922 C 202.0573,224.7229 202.2051,224.7972 202.2718,224.8154 202.4559,224.864 202.6389,224.8879 202.8192,224.8879 203.1214,224.8879 203.3436,224.8259 203.4876,224.701 203.6325,224.5741 203.705,224.4092 203.705,224.2042 203.705,224.0325 203.6564,223.9076 203.56,223.8294 203.4199,223.7179 203.1977,223.6263 202.8926,223.5557 L 202.7133,223.5138 C 202.4511,223.4528 202.2509,223.366 202.1126,223.2544 201.9391,223.1143 201.8532,222.9446 201.8532,222.7453 201.8532,222.4182 201.9572,222.1827 202.166,222.0387 202.3748,221.8957 202.6304,221.8242 202.9336,221.8242 203.1929,221.8242 203.3713,221.8375 203.4704,221.8661 203.5896,221.8995 203.706,221.9415 203.8194,221.9911 Z M 205.2859,224.3186 L 205.2859,226.218 205.0351,226.218 205.0351,221.8995 205.2859,221.8995 205.2859,222.6146 C 205.4032,222.3429 205.531,222.156 205.6692,222.0559 205.879,221.9014 206.0774,221.8242 206.2643,221.8242 206.6342,221.8242 206.9431,221.9748 207.1882,222.2762 207.4342,222.5784 207.5572,222.9751 207.5572,223.4661 207.5572,223.9581 207.4342,224.3548 207.1882,224.6561 206.9431,224.9584 206.6342,225.1091 206.2643,225.1091 206.0774,225.1091 205.879,225.0318 205.6692,224.8773 205.531,224.7763 205.4032,224.5903 205.2859,224.3186 Z M 206.9622,224.556 C 207.1787,224.3377 207.2864,223.9743 207.2864,223.4661 207.2864,222.9579 207.1787,222.5946 206.9622,222.3772 206.7477,222.1589 206.5217,222.0501 206.2833,222.0501 206.0507,222.0501 205.8266,222.1589 205.6101,222.3772 205.3956,222.5946 205.2888,222.9579 205.2888,223.4661 205.2888,223.9743 205.3956,224.3377 205.6101,224.556 205.8266,224.7734 206.0507,224.8831 206.2833,224.8831 206.5217,224.8831 206.7477,224.7734 206.9622,224.556 Z M 211.0996,223.3355 L 211.0996,223.4976 208.7253,223.4976 C 208.7253,224.0001 208.8235,224.352 209.019,224.5532 209.2345,224.7763 209.5558,224.8879 209.982,224.8879 210.0945,224.8879 210.2423,224.864 210.4264,224.8154 210.6133,224.7677 210.7973,224.6943 210.9794,224.598 L 210.9794,224.8688 C 210.7954,224.9469 210.6066,225.007 210.413,225.0471 210.2195,225.0881 210.065,225.1091 209.9515,225.1091 209.469,225.1091 209.1067,224.9784 208.8626,224.7181 208.5975,224.4406 208.4659,224.0335 208.4659,223.4976 208.4659,222.9407 208.587,222.525 208.8283,222.2513 209.0762,221.9662 209.4213,221.8242 209.8628,221.8242 210.2719,221.8242 210.5808,221.9586 210.7897,222.2285 210.9966,222.5117 211.0996,222.8807 211.0996,223.3355 Z M 210.8402,223.2793 C 210.8402,222.8397 210.7411,222.5193 210.5436,222.3181 210.3777,222.1398 210.1527,222.0501 209.8676,222.0501 209.5567,222.0501 209.2965,222.1436 209.0857,222.3295 208.8922,222.5031 208.7758,222.8196 208.7367,223.2793 L 210.8402,223.2793 Z M 214.3234,222.0501 L 214.3234,222.3238 C 214.169,222.2285 214.0412,222.1646 213.9401,222.1312 213.7675,222.0769 213.6016,222.0501 213.4434,222.0501 212.9923,222.0501 212.6691,222.1655 212.4736,222.3963 212.2781,222.6271 212.1809,222.9836 212.1809,223.4661 212.1809,223.9524 212.2781,224.3109 212.4736,224.5417 212.6691,224.7725 212.9923,224.8879 213.4434,224.8879 213.5921,224.8879 213.7389,224.8678 213.8848,224.8268 214.0317,224.7877 214.1776,224.7286 214.3234,224.6485 L 214.3234,224.9079 C 214.1795,224.9746 214.0317,225.0252 213.8791,225.0585 213.7247,225.0919 213.5721,225.1091 213.4205,225.1091 212.9628,225.1091 212.5985,224.9851 212.3287,224.7372 212.0588,224.4883 211.9234,224.064 211.9234,223.4661 211.9234,222.8683 212.0588,222.4449 212.3287,222.1951 212.5985,221.9472 212.9628,221.8242 213.4205,221.8242 213.5702,221.8242 213.7285,221.8451 213.8963,221.8881 214.0631,221.929 214.2062,221.9834 214.3234,222.0501 Z M 215.3456,221.8995 L 215.6031,221.8995 215.6031,225.0843 C 215.6031,225.5086 215.5382,225.8032 215.4105,225.9691 215.2798,226.135 215.0663,226.218 214.7706,226.218 L 214.5752,226.218 214.5752,226.0006 214.7115,226.0006 C 214.9203,226.0006 215.0786,225.9539 215.1864,225.8605 215.2932,225.767 215.3456,225.5086 215.3456,225.0843 L 215.3456,221.8995 Z M 215.3456,220.6809 L 215.6031,220.6809 215.6031,221.0327 215.3456,221.0327 215.3456,220.6809 Z M 218.1671,223.2621 C 217.7542,223.2621 217.4558,223.3364 217.2737,223.4833 217.0906,223.6302 217.0,223.8456 217.0,224.1288 217.0,224.4044 217.0753,224.5999 217.226,224.7152 217.3766,224.8306 217.5559,224.8879 217.7619,224.8879 218.1537,224.8879 218.4341,224.7229 218.6057,224.391 218.7793,224.0592 218.866,223.7474 218.866,223.4556 L 218.866,223.2621 218.1671,223.2621 Z M 219.1254,223.243 L 219.1254,225.028 218.8708,225.028 218.8708,224.1784 C 218.7278,224.5941 218.538,224.8583 218.3015,224.9718 218.1137,225.0633 217.9259,225.1091 217.7399,225.1091 217.4291,225.1091 217.184,225.0261 217.0048,224.8602 216.8264,224.6924 216.7368,224.4473 216.7368,224.1231 216.7368,223.7989 216.8531,223.5395 217.0858,223.346 217.3194,223.1505 217.6998,223.0532 218.2291,223.0532 L 218.866,223.0532 218.866,223.0027 C 218.866,222.7253 218.7869,222.4974 218.6286,222.3181 218.4722,222.1398 218.2129,222.0501 217.8515,222.0501 217.6732,222.0501 217.4901,222.0835 217.3042,222.1503 217.185,222.1932 217.0305,222.2799 216.8407,222.4106 L 216.8407,222.1341 C 217.0057,222.0311 217.1611,221.9586 217.3042,221.9157 217.513,221.8547 217.7132,221.8242 217.9049,221.8242 218.2739,221.8242 218.5771,221.9357 218.8155,222.1589 219.0224,222.3505 219.1254,222.7119 219.1254,223.243 Z M 220.4222,220.6809 L 220.6787,220.6809 220.6787,225.028 220.4222,225.028 220.4222,220.6809 Z M 222.006,221.8995 L 222.2625,221.8995 222.2625,225.028 222.006,225.028 222.006,221.8995 Z M 222.006,220.6809 L 222.2625,220.6809 222.2625,221.0327 222.006,221.0327 222.006,220.6809 Z M 225.3719,221.9911 L 225.3719,222.2733 C 225.1917,222.1732 225.0782,222.1169 225.0343,222.1055 224.9037,222.074 224.7416,222.0559 224.548,222.0501 224.2534,222.0501 224.0227,222.1083 223.8549,222.2256 223.7271,222.3229 223.6622,222.4888 223.6622,222.7233 223.6622,222.8816 223.7232,223.0056 223.8443,223.0952 223.9721,223.1915 224.1562,223.2659 224.3945,223.3183 L 224.57,223.3574 C 224.8665,223.4223 225.0906,223.5148 225.2432,223.634 225.4205,223.7703 225.514,223.9467 225.5226,224.1651 225.5226,224.4606 225.4358,224.6924 225.2604,224.8602 225.0744,225.0261 224.7741,225.1091 224.3611,225.1091 224.1294,225.1091 223.955,225.0929 223.8358,225.0614 223.6918,225.0204 223.5411,224.9708 223.3829,224.9136 L 223.3829,224.5922 C 223.6098,224.7229 223.7576,224.7972 223.8243,224.8154 224.0084,224.864 224.1914,224.8879 224.3717,224.8879 224.6739,224.8879 224.8961,224.8259 225.0401,224.701 225.185,224.5741 225.2575,224.4092 225.2575,224.2042 225.2575,224.0325 225.2089,223.9076 225.1125,223.8294 224.9724,223.7179 224.7502,223.6263 224.4451,223.5557 L 224.2658,223.5138 C 224.0036,223.4528 223.8034,223.366 223.6651,223.2544 223.4915,223.1143 223.4057,222.9446 223.4057,222.7453 223.4057,222.4182 223.5097,222.1827 223.7185,222.0387 223.9273,221.8957 224.1829,221.8242 224.4861,221.8242 224.7454,221.8242 224.9238,221.8375 225.0229,221.8661 225.1421,221.8995 225.2584,221.9415 225.3719,221.9911 Z M 226.8527,221.0108 L 226.8527,221.8995 227.9111,221.8995 227.9111,222.1169 226.8527,222.1169 226.8527,223.9973 C 226.8527,224.2356 226.8832,224.4025 226.9452,224.4969 227.0711,224.7057 227.256,224.8096 227.4983,224.8096 L 227.9111,224.8096 227.9111,225.028 227.5116,225.028 C 227.257,225.028 227.0396,224.9536 226.8613,224.8049 226.682,224.6552 226.5924,224.3863 226.5924,223.9973 L 226.5924,222.1169 226.2186,222.1169 226.2186,221.8995 226.5924,221.8995 226.5924,221.0108 226.8527,221.0108 Z M 229.8811,225.3188 C 229.7696,225.5963 229.6494,225.788 229.5207,225.8938 229.3481,226.0378 229.1784,226.1093 229.0125,226.1093 L 228.6301,226.1093 228.6301,225.891 228.9562,225.891 C 229.0926,225.891 229.2118,225.8471 229.3138,225.7603 229.4463,225.6459 229.555,225.48 229.6408,225.2597 L 229.7333,225.028 228.4842,221.8995 228.7579,221.8995 229.8697,224.6876 230.9843,221.8995 231.2561,221.8995 229.8811,225.3188 Z M 234.3541,222.0501 L 234.3541,222.3238 C 234.1997,222.2285 234.0719,222.1646 233.9708,222.1312 233.7982,222.0769 233.6323,222.0501 233.474,222.0501 233.023,222.0501 232.6998,222.1655 232.5043,222.3963 232.3088,222.6271 232.2115,222.9836 232.2115,223.4661 232.2115,223.9524 232.3088,224.3109 232.5043,224.5417 232.6998,224.7725 233.023,224.8879 233.474,224.8879 233.6228,224.8879 233.7696,224.8678 233.9155,224.8268 234.0624,224.7877 234.2082,224.7286 234.3541,224.6485 L 234.3541,224.9079 C 234.2101,224.9746 234.0624,225.0252 233.9098,225.0585 233.7553,225.0919 233.6027,225.1091 233.4511,225.1091 232.9935,225.1091 232.6292,224.9851 232.3593,224.7372 232.0895,224.4883 231.9541,224.064 231.9541,223.4661 231.9541,222.8683 232.0895,222.4449 232.3593,222.1951 232.6292,221.9472 232.9935,221.8242 233.4511,221.8242 233.6008,221.8242 233.7591,221.8451 233.927,221.8881 234.0938,221.929 234.2368,221.9834 234.3541,222.0501 Z M 235.0244,221.8995 L 237.4664,221.8995 237.4664,222.1951 235.2037,224.8096 237.4664,224.8096 237.4664,225.028 234.9548,225.028 234.9548,224.7429 237.2147,222.1198 235.0244,222.1198 235.0244,221.8995 Z M 240.7227,223.14 L 240.7227,225.028 240.4662,225.028 240.4662,223.1562 C 240.4662,222.75 240.4004,222.4649 240.2707,222.299 240.1401,222.1331 239.9484,222.0501 239.6948,222.0501 239.3992,222.0501 239.1456,222.1398 238.9349,222.3181 238.7232,222.4992 238.6164,222.813 238.6164,223.2602 L 238.6164,225.028 238.3599,225.028 238.3599,221.8995 238.6164,221.8995 238.6164,222.4859 C 238.7079,222.2962 238.828,222.1503 238.9768,222.0501 239.1971,221.8995 239.4402,221.8242 239.7063,221.8242 240.0152,221.8242 240.2622,221.929 240.4462,222.1398 240.6312,222.3476 240.7227,222.6814 240.7227,223.14 Z M 244.4243,223.3355 L 244.4243,223.4976 242.05,223.4976 C 242.05,224.0001 242.1482,224.352 242.3437,224.5532 242.5592,224.7763 242.8805,224.8879 243.3068,224.8879 243.4193,224.8879 243.567,224.864 243.7511,224.8154 243.938,224.7677 244.122,224.6943 244.3041,224.598 L 244.3041,224.8688 C 244.1201,224.9469 243.9313,225.007 243.7377,225.0471 243.5442,225.0881 243.3897,225.1091 243.2762,225.1091 242.7937,225.1091 242.4314,224.9784 242.1873,224.7181 241.9222,224.4406 241.7906,224.0335 241.7906,223.4976 241.7906,222.9407 241.9117,222.525 242.153,222.2513 242.4009,221.9662 242.7461,221.8242 243.1876,221.8242 243.5966,221.8242 243.9056,221.9586 244.1144,222.2285 244.3213,222.5117 244.4243,222.8807 244.4243,223.3355 Z M 244.1649,223.2793 C 244.1649,222.8397 244.0658,222.5193 243.8684,222.3181 243.7025,222.1398 243.4774,222.0501 243.1923,222.0501 242.8815,222.0501 242.6212,222.1436 242.4104,222.3295 242.2169,222.5031 242.1006,222.8196 242.0614,223.2793 L 244.1649,223.2793 Z M 249.4017,223.427 C 249.4017,222.9932 249.314,222.6566 249.1385,222.4172 248.9621,222.1779 248.7151,222.0587 248.3967,222.0587 248.082,222.0587 247.836,222.1779 247.6605,222.4172 247.4842,222.6566 247.3964,222.9932 247.3964,223.427 247.3964,223.859 247.4842,224.1946 247.6605,224.434 247.836,224.6733 248.082,224.7934 248.3967,224.7934 248.7151,224.7934 248.9621,224.6733 249.1385,224.434 249.314,224.1946 249.4017,223.859 249.4017,223.427 Z M 249.6592,224.6399 C 249.6592,225.2893 249.5352,225.7155 249.2873,225.9167 249.0403,226.1179 248.7256,226.218 248.3461,226.218 248.1659,226.218 247.9952,226.2046 247.8351,226.1789 247.6748,226.1512 247.5194,226.1093 247.3688,226.053 L 247.3688,225.7603 C 247.5194,225.8414 247.6682,225.9024 247.815,225.9415 247.9628,225.9806 248.1125,226.0006 248.2651,226.0006 248.5759,226.0006 248.8429,225.9338 249.067,225.8013 249.2901,225.6697 249.4017,225.3131 249.4017,224.7315 L 249.4017,224.2432 C 249.3254,224.4568 249.2205,224.6256 249.0861,224.7486 248.8811,224.9365 248.6513,225.0299 248.3967,225.028 248.0,225.028 247.6901,224.8879 247.4689,224.6075 247.2477,224.3272 247.1361,223.9334 247.1361,223.4242 247.1361,222.9178 247.2477,222.5241 247.4689,222.2447 247.6901,221.9643 248.0,221.8242 248.3967,221.8242 248.6494,221.8242 248.8677,221.9043 249.0498,222.0644 249.1919,222.1884 249.3092,222.3553 249.4017,222.5641 L 249.4017,221.8995 249.6592,221.8995 249.6592,224.6399 Z M 252.0086,223.2621 C 251.5957,223.2621 251.2973,223.3364 251.1152,223.4833 250.9321,223.6302 250.8415,223.8456 250.8415,224.1288 250.8415,224.4044 250.9168,224.5999 251.0675,224.7152 251.2181,224.8306 251.3974,224.8879 251.6034,224.8879 251.9953,224.8879 252.2756,224.7229 252.4472,224.391 252.6208,224.0592 252.7075,223.7474 252.7075,223.4556 L 252.7075,223.2621 252.0086,223.2621 Z M 252.9669,223.243 L 252.9669,225.028 252.7123,225.028 252.7123,224.1784 C 252.5693,224.5941 252.3795,224.8583 252.143,224.9718 251.9552,225.0633 251.7674,225.1091 251.5814,225.1091 251.2706,225.1091 251.0255,225.0261 250.8463,224.8602 250.6679,224.6924 250.5783,224.4473 250.5783,224.1231 250.5783,223.7989 250.6947,223.5395 250.9273,223.346 251.1609,223.1505 251.5414,223.0532 252.0706,223.0532 L 252.7075,223.0532 252.7075,223.0027 C 252.7075,222.7253 252.6284,222.4974 252.4701,222.3181 252.3137,222.1398 252.0544,222.0501 251.693,222.0501 251.5147,222.0501 251.3316,222.0835 251.1457,222.1503 251.0265,222.1932 250.872,222.2799 250.6822,222.4106 L 250.6822,222.1341 C 250.8472,222.0311 251.0026,221.9586 251.1457,221.9157 251.3545,221.8547 251.5547,221.8242 251.7464,221.8242 252.1154,221.8242 252.4186,221.9357 252.657,222.1589 252.8639,222.3505 252.9669,222.7119 252.9669,223.243 Z M 256.1965,224.556 C 256.4129,224.3377 256.5207,223.9743 256.5207,223.4661 256.5207,222.9579 256.4129,222.5946 256.1965,222.3772 255.9819,222.1589 255.756,222.0501 255.5176,222.0501 255.2849,222.0501 255.0608,222.1589 254.8444,222.3772 254.6299,222.5946 254.523,222.9579 254.523,223.4661 254.523,223.9743 254.6299,224.3377 254.8444,224.556 255.0608,224.7734 255.2849,224.8831 255.5176,224.8831 255.756,224.8831 255.9819,224.7734 256.1965,224.556 Z M 254.5202,222.6146 C 254.6375,222.3429 254.7653,222.156 254.9035,222.0559 255.1133,221.9014 255.3116,221.8242 255.4985,221.8242 255.8685,221.8242 256.1774,221.9748 256.4225,222.2762 256.6685,222.5784 256.7915,222.9751 256.7915,223.4661 256.7915,223.9581 256.6685,224.3548 256.4225,224.6561 256.1774,224.9584 255.8685,225.1091 255.4985,225.1091 255.3116,225.1091 255.1133,225.0318 254.9035,224.8773 254.7653,224.7763 254.6375,224.5903 254.5202,224.3186 L 254.5202,225.028 254.2694,225.028 254.2694,220.6809 254.5202,220.6809 254.5202,222.6146 Z M 257.8899,221.8995 L 258.1464,221.8995 258.1464,225.028 257.8899,225.028 257.8899,221.8995 Z M 257.8899,220.6809 L 258.1464,220.6809 258.1464,221.0327 257.8899,221.0327 257.8899,220.6809 Z M 261.848,223.14 L 261.848,225.028 261.5915,225.028 261.5915,223.1562 C 261.5915,222.75 261.5257,222.4649 261.3961,222.299 261.2654,222.1331 261.0737,222.0501 260.8201,222.0501 260.5245,222.0501 260.2709,222.1398 260.0602,222.3181 259.8485,222.4992 259.7417,222.813 259.7417,223.2602 L 259.7417,225.028 259.4852,225.028 259.4852,221.8995 259.7417,221.8995 259.7417,222.4859 C 259.8332,222.2962 259.9534,222.1503 260.1021,222.0501 260.3224,221.8995 260.5655,221.8242 260.8316,221.8242 261.1405,221.8242 261.3875,221.929 261.5715,222.1398 261.7565,222.3476 261.848,222.6814 261.848,223.14 Z M 265.5496,223.3355 L 265.5496,223.4976 263.1753,223.4976 C 263.1753,224.0001 263.2735,224.352 263.469,224.5532 263.6845,224.7763 264.0058,224.8879 264.4321,224.8879 264.5446,224.8879 264.6924,224.864 264.8764,224.8154 265.0633,224.7677 265.2473,224.6943 265.4294,224.598 L 265.4294,224.8688 C 265.2454,224.9469 265.0566,225.007 264.8631,225.0471 264.6695,225.0881 264.515,225.1091 264.4015,225.1091 263.9191,225.1091 263.5567,224.9784 263.3126,224.7181 263.0475,224.4406 262.916,224.0335 262.916,223.4976 262.916,222.9407 263.0371,222.525 263.2783,222.2513 263.5262,221.9662 263.8714,221.8242 264.3129,221.8242 264.7219,221.8242 265.0309,221.9586 265.2397,222.2285 265.4466,222.5117 265.5496,222.8807 265.5496,223.3355 Z M 265.2902,223.2793 C 265.2902,222.8397 265.1911,222.5193 264.9937,222.3181 264.8278,222.1398 264.6027,222.0501 264.3176,222.0501 264.0068,222.0501 263.7465,222.1436 263.5357,222.3295 263.3422,222.5031 263.2259,222.8196 263.1868,223.2793 L 265.2902,223.2793 Z M 266.9017,221.0108 L 266.9017,221.8995 267.9601,221.8995 267.9601,222.1169 266.9017,222.1169 266.9017,223.9973 C 266.9017,224.2356 266.9322,224.4025 266.9942,224.4969 267.1201,224.7057 267.305,224.8096 267.5472,224.8096 L 267.9601,224.8096 267.9601,225.028 267.5606,225.028 C 267.306,225.028 267.0886,224.9536 266.9103,224.8049 266.731,224.6552 266.6414,224.3863 266.6414,223.9973 L 266.6414,222.1169 266.2676,222.1169 266.2676,221.8995 266.6414,221.8995 266.6414,221.0108 266.9017,221.0108 Z M 269.9301,225.3188 C 269.8186,225.5963 269.6984,225.788 269.5697,225.8938 269.3971,226.0378 269.2274,226.1093 269.0615,226.1093 L 268.6791,226.1093 268.6791,225.891 269.0052,225.891 C 269.1416,225.891 269.2607,225.8471 269.3628,225.7603 269.4953,225.6459 269.604,225.48 269.6898,225.2597 L 269.7823,225.028 268.5332,221.8995 268.8069,221.8995 269.9187,224.6876 271.0333,221.8995 271.3051,221.8995 269.9301,225.3188 Z M 274.0789,220.6809 L 274.3354,220.6809 274.3354,225.028 274.0789,225.028 274.0789,220.6809 Z M 278.1066,223.3355 L 278.1066,223.4976 275.7323,223.4976 C 275.7323,224.0001 275.8305,224.352 276.026,224.5532 276.2415,224.7763 276.5628,224.8879 276.9891,224.8879 277.1016,224.8879 277.2494,224.864 277.4334,224.8154 277.6203,224.7677 277.8043,224.6943 277.9864,224.598 L 277.9864,224.8688 C 277.8024,224.9469 277.6136,225.007 277.4201,225.0471 277.2265,225.0881 277.072,225.1091 276.9585,225.1091 276.476,225.1091 276.1137,224.9784 275.8696,224.7181 275.6045,224.4406 275.4729,224.0335 275.4729,223.4976 275.4729,222.9407 275.5941,222.525 275.8353,222.2513 276.0832,221.9662 276.4284,221.8242 276.8699,221.8242 277.2789,221.8242 277.5879,221.9586 277.7967,222.2285 278.0036,222.5117 278.1066,222.8807 278.1066,223.3355 Z M 277.8472,223.2793 C 277.8472,222.8397 277.7481,222.5193 277.5507,222.3181 277.3848,222.1398 277.1597,222.0501 276.8746,222.0501 276.5638,222.0501 276.3035,222.1436 276.0927,222.3295 275.8992,222.5031 275.7829,222.8196 275.7438,223.2793 L 277.8472,223.2793 Z M 279.4472,220.6809 L 279.7076,220.6809 279.7076,223.3212 281.2628,221.8995 281.6156,221.8995 279.9974,223.3775 281.668,225.028 281.3362,225.028 279.7076,223.4242 279.7076,225.028 279.4472,225.028 279.4472,220.6809 Z M 283.6514,223.2621 C 283.2385,223.2621 282.94,223.3364 282.7579,223.4833 282.5749,223.6302 282.4842,223.8456 282.4842,224.1288 282.4842,224.4044 282.5596,224.5999 282.7103,224.7152 282.8609,224.8306 283.0402,224.8879 283.2461,224.8879 283.638,224.8879 283.9184,224.7229 284.09,224.391 284.2635,224.0592 284.3503,223.7474 284.3503,223.4556 L 284.3503,223.2621 283.6514,223.2621 Z M 284.6097,223.243 L 284.6097,225.028 284.3551,225.028 284.3551,224.1784 C 284.212,224.5941 284.0223,224.8583 283.7858,224.9718 283.598,225.0633 283.4101,225.1091 283.2242,225.1091 282.9134,225.1091 282.6683,225.0261 282.489,224.8602 282.3107,224.6924 282.2211,224.4473 282.2211,224.1231 282.2211,223.7989 282.3374,223.5395 282.5701,223.346 282.8037,223.1505 283.1841,223.0532 283.7134,223.0532 L 284.3503,223.0532 284.3503,223.0027 C 284.3503,222.7253 284.2712,222.4974 284.1129,222.3181 283.9565,222.1398 283.6971,222.0501 283.3358,222.0501 283.1574,222.0501 282.9744,222.0835 282.7884,222.1503 282.6692,222.1932 282.5148,222.2799 282.325,222.4106 L 282.325,222.1341 C 282.49,222.0311 282.6454,221.9586 282.7884,221.9157 282.9973,221.8547 283.1975,221.8242 283.3891,221.8242 283.7582,221.8242 284.0614,221.9357 284.2998,222.1589 284.5067,222.3505 284.6097,222.7119 284.6097,223.243 Z M 287.6047,222.1198 C 287.5637,222.0997 287.5074,222.0816 287.4369,222.0673 287.3739,222.0559 287.2938,222.0501 287.1966,222.0501 286.88,222.0501 286.6178,222.1674 286.409,222.402 286.245,222.5918 286.163,222.9178 286.163,223.3794 L 286.163,225.028 285.9122,225.028 285.9122,221.8995 286.163,221.8995 286.163,222.4859 C 286.2469,222.3181 286.3642,222.177 286.5148,222.0616 286.7236,221.9033 286.9697,221.8242 287.2529,221.8242 287.3253,221.8242 287.3883,221.827 287.4426,221.8318 287.4988,221.8318 287.5523,221.8385 287.6047,221.8518 L 287.6047,222.1198 Z M 290.0295,221.9911 L 290.0295,222.2733 C 289.8493,222.1732 289.7358,222.1169 289.6919,222.1055 289.5613,222.074 289.3992,222.0559 289.2056,222.0501 288.911,222.0501 288.6803,222.1083 288.5125,222.2256 288.3847,222.3229 288.3198,222.4888 288.3198,222.7233 288.3198,222.8816 288.3808,223.0056 288.5019,223.0952 288.6297,223.1915 288.8138,223.2659 289.0521,223.3183 L 289.2276,223.3574 C 289.5241,223.4223 289.7482,223.5148 289.9008,223.634 290.0781,223.7703 290.1716,223.9467 290.1802,224.1651 290.1802,224.4606 290.0934,224.6924 289.918,224.8602 289.732,225.0261 289.4317,225.1091 289.0187,225.1091 288.787,225.1091 288.6126,225.0929 288.4934,225.0614 288.3494,225.0204 288.1987,224.9708 288.0405,224.9136 L 288.0405,224.5922 C 288.2674,224.7229 288.4152,224.7972 288.4819,224.8154 288.666,224.864 288.849,224.8879 289.0293,224.8879 289.3315,224.8879 289.5537,224.8259 289.6977,224.701 289.8426,224.5741 289.9151,224.4092 289.9151,224.2042 289.9151,224.0325 289.8665,223.9076 289.7701,223.8294 289.63,223.7179 289.4078,223.6263 289.1027,223.5557 L 288.9234,223.5138 C 288.6612,223.4528 288.461,223.366 288.3227,223.2544 288.1491,223.1143 288.0633,222.9446 288.0633,222.7453 288.0633,222.4182 288.1673,222.1827 288.3761,222.0387 288.5849,221.8957 288.8405,221.8242 289.1437,221.8242 289.403,221.8242 289.5814,221.8375 289.6805,221.8661 289.7997,221.8995 289.916,221.9415 290.0295,221.9911 Z M 291.4989,220.6809 L 291.7592,220.6809 291.7592,223.3212 293.3144,221.8995 293.6672,221.8995 292.049,223.3775 293.7196,225.028 293.3878,225.028 291.7592,223.4242 291.7592,225.028 291.4989,225.028 291.4989,220.6809 Z M 294.5473,221.8995 L 294.8038,221.8995 294.8038,225.028 294.5473,225.028 294.5473,221.8995 Z M 294.5473,220.6809 L 294.8038,220.6809 294.8038,221.0327 294.5473,221.0327 294.5473,220.6809 Z M 298.5807,223.3355 L 298.5807,223.4976 296.2064,223.4976 C 296.2064,224.0001 296.3046,224.352 296.5001,224.5532 296.7156,224.7763 297.0369,224.8879 297.4632,224.8879 297.5757,224.8879 297.7234,224.864 297.9075,224.8154 298.0944,224.7677 298.2784,224.6943 298.4605,224.598 L 298.4605,224.8688 C 298.2765,224.9469 298.0877,225.007 297.8941,225.0471 297.7006,225.0881 297.5461,225.1091 297.4326,225.1091 296.9501,225.1091 296.5878,224.9784 296.3437,224.7181 296.0786,224.4406 295.947,224.0335 295.947,223.4976 295.947,222.9407 296.0681,222.525 296.3094,222.2513 296.5573,221.9662 296.9025,221.8242 297.344,221.8242 297.753,221.8242 298.062,221.9586 298.2708,222.2285 298.4777,222.5117 298.5807,222.8807 298.5807,223.3355 Z M 298.3213,223.2793 C 298.3213,222.8397 298.2222,222.5193 298.0248,222.3181 297.8588,222.1398 297.6338,222.0501 297.3487,222.0501 297.0379,222.0501 296.7776,222.1436 296.5668,222.3295 296.3733,222.5031 296.2569,222.8196 296.2178,223.2793 L 298.3213,223.2793 Z M 234.0423,228.6505 L 234.0423,228.9327 C 233.8621,228.8326 233.7486,228.7763 233.7048,228.7649 233.5741,228.7334 233.412,228.7153 233.2185,228.7096 232.9238,228.7096 232.6931,228.7677 232.5253,228.885 232.3975,228.9823 232.3327,229.1482 232.3327,229.3828 232.3327,229.541 232.3937,229.665 232.5148,229.7546 232.6425,229.851 232.8266,229.9253 233.0649,229.9778 L 233.2404,230.0169 C 233.5369,230.0817 233.761,230.1742 233.9136,230.2934 234.0909,230.4297 234.1844,230.6062 234.193,230.8245 234.193,231.1201 234.1062,231.3518 233.9308,231.5196 233.7448,231.6855 233.4445,231.7685 233.0316,231.7685 232.7999,231.7685 232.6254,231.7523 232.5062,231.7208 232.3622,231.6798 232.2115,231.6302 232.0533,231.573 L 232.0533,231.2517 C 232.2802,231.3823 232.428,231.4567 232.4947,231.4748 232.6788,231.5234 232.8618,231.5473 233.0421,231.5473 233.3443,231.5473 233.5665,231.4853 233.7105,231.3604 233.8554,231.2335 233.9279,231.0686 233.9279,230.8636 233.9279,230.692 233.8793,230.567 233.7829,230.4889 233.6428,230.3773 233.4206,230.2858 233.1155,230.2152 L 232.9362,230.1732 C 232.674,230.1122 232.4738,230.0254 232.3355,229.9139 232.162,229.7737 232.0761,229.604 232.0761,229.4047 232.0761,229.0776 232.1801,228.8421 232.3889,228.6981 232.5977,228.5551 232.8533,228.4836 233.1565,228.4836 233.4158,228.4836 233.5942,228.4969 233.6933,228.5256 233.8125,228.5589 233.9289,228.6009 234.0423,228.6505 Z M 235.5231,227.6702 L 235.5231,228.5589 236.5815,228.5589 236.5815,228.7763 235.5231,228.7763 235.5231,230.6567 C 235.5231,230.8951 235.5536,231.0619 235.6156,231.1563 235.7415,231.3651 235.9265,231.4691 236.1687,231.4691 L 236.5815,231.4691 236.5815,231.6874 236.182,231.6874 C 235.9274,231.6874 235.71,231.6131 235.5317,231.4643 235.3524,231.3146 235.2628,231.0457 235.2628,230.6567 L 235.2628,228.7763 234.889,228.7763 234.889,228.5589 235.2628,228.5589 235.2628,227.6702 235.5231,227.6702 Z M 239.3563,229.0948 C 239.1723,228.8383 238.9206,228.7096 238.6021,228.7096 238.2836,228.7096 238.0319,228.8373 237.8479,229.0919 237.6619,229.3456 237.5685,229.6879 237.5685,230.1199 237.5685,230.5632 237.6609,230.9113 237.845,231.1649 238.029,231.4204 238.2817,231.5473 238.6021,231.5473 238.9206,231.5473 239.1723,231.4204 239.3563,231.1649 239.5423,230.9084 239.6357,230.5594 239.6357,230.1199 239.6357,229.6936 239.5423,229.3523 239.3563,229.0948 Z M 238.5992,228.4836 C 238.9978,228.4836 239.3124,228.6323 239.5432,228.9299 239.7759,229.2302 239.8922,229.6278 239.8922,230.1227 239.8922,230.6347 239.7759,231.039 239.5432,231.3356 239.3124,231.6331 238.9978,231.7828 238.5992,231.7828 238.1968,231.7828 237.8793,231.634 237.6467,231.3384 237.4159,231.0419 237.3005,230.6367 237.3005,230.1227 237.3005,229.6221 237.4169,229.2235 237.6495,228.927 237.8822,228.6314 238.1987,228.4836 238.5992,228.4836 Z M 243.2477,229.2407 C 243.3449,228.9889 243.4975,228.7992 243.7063,228.6705 243.9037,228.5456 244.1382,228.4836 244.41,228.4836 244.6818,228.4836 244.8992,228.579 245.0631,228.7706 245.2291,228.9613 245.312,229.3036 245.312,229.7995 L 245.312,231.6874 245.0584,231.6874 245.0584,229.8157 C 245.0584,229.3837 244.9983,229.091 244.8791,228.9384 244.7599,228.7858 244.6017,228.7096 244.4043,228.7096 244.1173,228.7096 243.8646,228.7983 243.6443,228.9747 243.404,229.1663 243.2839,229.4819 243.2839,229.9196 L 243.2839,231.6874 243.0274,231.6874 243.0274,229.8157 C 243.0274,229.399 242.9692,229.1101 242.8538,228.9499 242.7385,228.7897 242.5783,228.7096 242.3733,228.7096 242.0863,228.7096 241.8336,228.7992 241.6133,228.9775 241.373,229.1692 241.2529,229.4829 241.2529,229.9196 L 241.2529,231.6874 240.9964,231.6874 240.9964,228.5589 241.2529,228.5589 241.2529,229.1453 C 241.3444,228.9403 241.4856,228.7782 241.6781,228.659 241.8717,228.5418 242.1091,228.4836 242.3904,228.4836 242.5726,228.4836 242.7489,228.5446 242.9177,228.6676 243.0484,228.763 243.158,228.9537 243.2477,229.2407 Z M 247.8208,229.9215 C 247.4079,229.9215 247.1094,229.9959 246.9273,230.1427 246.7442,230.2896 246.6536,230.5051 246.6536,230.7883 246.6536,231.0638 246.729,231.2593 246.8796,231.3747 247.0303,231.4901 247.2095,231.5473 247.4155,231.5473 247.8074,231.5473 248.0878,231.3823 248.2594,231.0505 248.4329,230.7187 248.5197,230.4069 248.5197,230.1151 L 248.5197,229.9215 247.8208,229.9215 Z M 248.7791,229.9025 L 248.7791,231.6874 248.5245,231.6874 248.5245,230.8379 C 248.3814,231.2536 248.1917,231.5177 247.9552,231.6312 247.7674,231.7227 247.5795,231.7685 247.3936,231.7685 247.0827,231.7685 246.8377,231.6855 246.6584,231.5196 246.4801,231.3518 246.3905,231.1068 246.3905,230.7825 246.3905,230.4583 246.5068,230.199 246.7394,230.0054 246.9731,229.8099 247.3535,229.7127 247.8827,229.7127 L 248.5197,229.7127 248.5197,229.6621 C 248.5197,229.3847 248.4406,229.1568 248.2823,228.9775 248.1259,228.7992 247.8665,228.7096 247.5052,228.7096 247.3268,228.7096 247.1437,228.743 246.9578,228.8097 246.8386,228.8526 246.6842,228.9394 246.4944,229.07 L 246.4944,228.7935 C 246.6594,228.6905 246.8148,228.618 246.9578,228.5751 247.1667,228.5141 247.3669,228.4836 247.5585,228.4836 247.9275,228.4836 248.2308,228.5952 248.4692,228.8183 248.6761,229.0099 248.7791,229.3713 248.7791,229.9025 Z M 250.3466,227.6702 L 250.3466,228.5589 251.4051,228.5589 251.4051,228.7763 250.3466,228.7763 250.3466,230.6567 C 250.3466,230.8951 250.3771,231.0619 250.4392,231.1563 250.565,231.3651 250.75,231.4691 250.9922,231.4691 L 251.4051,231.4691 251.4051,231.6874 251.0056,231.6874 C 250.7509,231.6874 250.5335,231.6131 250.3552,231.4643 250.176,231.3146 250.0864,231.0457 250.0864,230.6567 L 250.0864,228.7763 249.7126,228.7763 249.7126,228.5589 250.0864,228.5589 250.0864,227.6702 250.3466,227.6702 Z M 254.1798,229.0948 C 253.9958,228.8383 253.7441,228.7096 253.4256,228.7096 253.1071,228.7096 252.8554,228.8373 252.6714,229.0919 252.4854,229.3456 252.392,229.6879 252.392,230.1199 252.392,230.5632 252.4845,230.9113 252.6685,231.1649 252.8525,231.4204 253.1052,231.5473 253.4256,231.5473 253.7441,231.5473 253.9958,231.4204 254.1798,231.1649 254.3658,230.9084 254.4592,230.5594 254.4592,230.1199 254.4592,229.6936 254.3658,229.3523 254.1798,229.0948 Z M 253.4228,228.4836 C 253.8213,228.4836 254.136,228.6323 254.3667,228.9299 254.5994,229.2302 254.7157,229.6278 254.7157,230.1227 254.7157,230.6347 254.5994,231.039 254.3667,231.3356 254.136,231.6331 253.8213,231.7828 253.4228,231.7828 253.0204,231.7828 252.7028,231.634 252.4702,231.3384 252.2394,231.0419 252.124,230.6367 252.124,230.1227 252.124,229.6221 252.2404,229.2235 252.473,228.927 252.7057,228.6314 253.0223,228.4836 253.4228,228.4836 Z M 255.8199,227.3403 L 256.0764,227.3403 256.0764,231.6874 255.8199,231.6874 255.8199,227.3403 Z M 259.2697,229.0948 C 259.0857,228.8383 258.834,228.7096 258.5155,228.7096 258.197,228.7096 257.9453,228.8373 257.7613,229.0919 257.5753,229.3456 257.4819,229.6879 257.4819,230.1199 257.4819,230.5632 257.5744,230.9113 257.7584,231.1649 257.9424,231.4204 258.1951,231.5473 258.5155,231.5473 258.834,231.5473 259.0857,231.4204 259.2697,231.1649 259.4557,230.9084 259.5491,230.5594 259.5491,230.1199 259.5491,229.6936 259.4557,229.3523 259.2697,229.0948 Z M 258.5127,228.4836 C 258.9112,228.4836 259.2259,228.6323 259.4566,228.9299 259.6893,229.2302 259.8056,229.6278 259.8056,230.1227 259.8056,230.6347 259.6893,231.039 259.4566,231.3356 259.2259,231.6331 258.9112,231.7828 258.5127,231.7828 258.1103,231.7828 257.7927,231.634 257.5601,231.3384 257.3293,231.0419 257.2139,230.6367 257.2139,230.1227 257.2139,229.6221 257.3303,229.2235 257.5629,228.927 257.7956,228.6314 258.1122,228.4836 258.5127,228.4836 Z M 262.9875,230.0865 C 262.9875,229.6526 262.8998,229.316 262.7244,229.0767 262.548,228.8373 262.301,228.7181 261.9825,228.7181 261.6679,228.7181 261.4218,228.8373 261.2464,229.0767 261.07,229.316 260.9823,229.6526 260.9823,230.0865 260.9823,230.5184 261.07,230.8541 261.2464,231.0934 261.4218,231.3327 261.6679,231.4529 261.9825,231.4529 262.301,231.4529 262.548,231.3327 262.7244,231.0934 262.8998,230.8541 262.9875,230.5184 262.9875,230.0865 Z M 263.245,231.2993 C 263.245,231.9487 263.121,232.3749 262.8731,232.5761 262.6261,232.7773 262.3115,232.8774 261.932,232.8774 261.7518,232.8774 261.5811,232.8641 261.4209,232.8383 261.2607,232.8107 261.1053,232.7687 260.9546,232.7125 L 260.9546,232.4197 C 261.1053,232.5008 261.254,232.5618 261.4009,232.6009 261.5487,232.64 261.6984,232.66 261.8509,232.66 262.1618,232.66 262.4288,232.5933 262.6529,232.4607 262.876,232.3292 262.9875,231.9725 262.9875,231.3909 L 262.9875,230.9027 C 262.9112,231.1163 262.8064,231.285 262.6719,231.4081 262.4669,231.5959 262.2371,231.6893 261.9825,231.6874 261.5858,231.6874 261.276,231.5473 261.0547,231.2669 260.8335,230.9866 260.722,230.5928 260.722,230.0836 260.722,229.5773 260.8335,229.1835 261.0547,228.9041 261.276,228.6238 261.5858,228.4836 261.9825,228.4836 262.2352,228.4836 262.4536,228.5637 262.6357,228.7239 262.7777,228.8479 262.895,229.0147 262.9875,229.2235 L 262.9875,228.5589 263.245,228.5589 263.245,231.2993 Z M 264.3377,228.5589 L 264.5942,228.5589 264.5942,231.6874 264.3377,231.6874 264.3377,228.5589 Z M 264.3377,227.3403 L 264.5942,227.3403 264.5942,227.6922 264.3377,227.6922 264.3377,227.3403 Z" style="fill-rule:evenodd;fill:#000000;"/>
      <path id="path16" d="M 267.184,229.9215 C 266.7711,229.9215 266.4726,229.9959 266.2905,230.1427 266.1074,230.2896 266.0168,230.5051 266.0168,230.7883 266.0168,231.0638 266.0922,231.2593 266.2428,231.3747 266.3935,231.4901 266.5727,231.5473 266.7787,231.5473 267.1706,231.5473 267.451,231.3823 267.6226,231.0505 267.7961,230.7187 267.8829,230.4069 267.8829,230.1151 L 267.8829,229.9215 267.184,229.9215 Z M 268.1423,229.9025 L 268.1423,231.6874 267.8877,231.6874 267.8877,230.8379 C 267.7446,231.2536 267.5549,231.5177 267.3184,231.6312 267.1306,231.7227 266.9427,231.7685 266.7568,231.7685 266.4459,231.7685 266.2009,231.6855 266.0216,231.5196 265.8433,231.3518 265.7537,231.1068 265.7537,230.7825 265.7537,230.4583 265.87,230.199 266.1026,230.0054 266.3363,229.8099 266.7167,229.7127 267.2459,229.7127 L 267.8829,229.7127 267.8829,229.6621 C 267.8829,229.3847 267.8038,229.1568 267.6455,228.9775 267.4891,228.7992 267.2297,228.7096 266.8684,228.7096 266.69,228.7096 266.5069,228.743 266.321,228.8097 266.2018,228.8526 266.0474,228.9394 265.8576,229.07 L 265.8576,228.7935 C 266.0226,228.6905 266.178,228.618 266.321,228.5751 266.5299,228.5141 266.7301,228.4836 266.9217,228.4836 267.2907,228.4836 267.594,228.5952 267.8324,228.8183 268.0393,229.0099 268.1423,229.3713 268.1423,229.9025 Z" style="fill-rule:evenodd;fill:#000000;"/>
    </g>
    <path id="path22" d="M 205.5181,209.1705 C 204.83,205.268 194.2442,203.8726 181.874,206.0538 169.5038,208.235 160.0337,213.1668 160.7218,217.0693 161.4099,220.9718 171.9957,222.3672 184.3659,220.186 196.736,218.0048 206.2062,213.073 205.5181,209.1705 Z M 201.9259,209.8039 C 201.3482,206.5273 192.4601,205.3557 182.0738,207.187 171.6875,209.0184 163.7362,213.1593 164.3139,216.4359 164.8917,219.7125 173.7798,220.8841 184.1661,219.0527 194.5523,217.2214 202.5037,213.0805 201.9259,209.8039 Z" style="fill-rule:evenodd;fill:#6e2454;"/>
    <path id="path26" d="M 204.492,205.3411 C 203.1367,201.6174 192.4694,202.0814 180.6659,206.3775 168.8625,210.6736 160.3926,217.175 161.7479,220.8987 163.1032,224.6224 173.7705,224.1584 185.574,219.8623 197.3774,215.5662 205.8473,209.0648 204.492,205.3411 Z M 201.0644,206.5886 C 199.9265,203.4621 190.9699,203.8517 181.0595,207.4588 171.149,211.0659 164.0375,216.5246 165.1755,219.6512 166.3134,222.7777 175.2699,222.3881 185.1804,218.7809 195.0909,215.1738 202.2024,209.7152 201.0644,206.5886 Z" style="fill-rule:evenodd;fill:#7b235d;"/>
    <path id="path30" d="M 202.8165,201.7481 C 200.8352,198.3163 190.4105,200.6256 179.5324,206.9061 168.6543,213.1866 161.442,221.0599 163.4233,224.4917 165.4047,227.9235 175.8294,225.6142 186.7075,219.3337 197.5856,213.0532 204.7979,205.1798 202.8165,201.7481 Z M 199.6577,203.5718 C 197.9941,200.6904 189.2413,202.6294 180.1078,207.9026 170.9742,213.1759 164.9186,219.7865 166.5822,222.668 168.2458,225.5494 176.9986,223.6104 186.1321,218.3372 195.2657,213.0639 201.3213,206.4532 199.6577,203.5718 Z" style="fill-rule:evenodd;fill:#702455;"/>
    <path id="path34" d="M 200.5426,198.5005 C 197.9954,195.4649 188.1302,199.5494 178.5079,207.6235 168.8856,215.6975 163.1501,224.7036 165.6973,227.7392 168.2444,230.7748 178.1097,226.6904 187.732,218.6163 197.3543,210.5423 203.0898,201.5361 200.5426,198.5005 Z M 197.7484,200.8451 C 195.6098,198.2964 187.3266,201.7258 179.2475,208.505 171.1685,215.2841 166.3528,222.8459 168.4915,225.3946 170.6301,227.9434 178.9132,224.514 186.9923,217.7348 195.0714,210.9557 199.8871,203.3939 197.7484,200.8451 Z" style="fill-rule:evenodd;fill:#77245a;"/>
    <path id="path38" d="M 197.7393,195.6972 C 194.7037,193.1501 185.6975,198.8856 177.6235,208.5078 169.5495,218.1301 165.465,227.9954 168.5006,230.5426 171.5362,233.0897 180.5423,227.3542 188.6164,217.7319 196.6904,208.1097 200.7749,198.2444 197.7393,195.6972 Z M 195.3947,198.4914 C 192.8459,196.3528 185.2842,201.1684 178.505,209.2475 171.7258,217.3266 168.2964,225.6097 170.8452,227.7484 173.3939,229.887 180.9557,225.0714 187.7349,216.9923 194.514,208.9132 197.9434,200.6301 195.3947,198.4914 Z" style="fill-rule:evenodd;fill:#452b57;"/>
    <path id="path42" d="M 194.4918,193.4233 C 191.06,191.4419 183.1866,198.6542 176.9061,209.5323 170.6256,220.4105 168.3163,230.8351 171.7481,232.8165 175.1799,234.7978 183.0533,227.5856 189.3337,216.7074 195.6142,205.8293 197.9236,195.4046 194.4918,193.4233 Z M 192.668,196.5822 C 189.7866,194.9186 183.1759,200.9742 177.9027,210.1077 172.6294,219.2412 170.6905,227.994 173.5719,229.6576 176.4533,231.3212 183.064,225.2656 188.3372,216.1321 193.6104,206.9985 195.5494,198.2458 192.668,196.5822 Z" style="fill-rule:evenodd;fill:#4c2d60;"/>
    <path id="path46" d="M 190.8987,191.7478 C 187.175,190.3925 180.6737,198.8624 176.3776,210.6659 172.0815,222.4693 171.6174,233.1366 175.3411,234.492 179.0649,235.8473 185.5662,227.3774 189.8623,215.5739 194.1584,203.7705 194.6224,193.1032 190.8987,191.7478 Z M 189.6512,195.1754 C 186.5247,194.0374 181.066,201.149 177.4589,211.0594 173.8518,220.9699 173.4622,229.9264 176.5887,231.0644 179.7152,232.2023 185.1739,225.0908 188.781,215.1803 192.3881,205.2699 192.7777,196.3134 189.6512,195.1754 Z" style="fill-rule:evenodd;fill:#4b2d5f;"/>
    <path id="path50" d="M 187.0693,190.7217 C 183.1668,190.0336 178.2351,199.5038 176.0539,211.874 173.8727,224.2441 175.2681,234.8299 179.1705,235.518 183.073,236.2061 188.0048,226.736 190.186,214.3658 192.3672,201.9957 190.9718,191.4099 187.0693,190.7217 Z M 186.4359,194.3139 C 183.1593,193.7361 179.0185,201.6875 177.1871,212.0738 175.3557,222.46 176.5273,231.3481 179.8039,231.9259 183.0806,232.5037 187.2214,224.5523 189.0528,214.166 190.8842,203.7797 189.7126,194.8916 186.4359,194.3139 Z" style="fill-rule:evenodd;fill:#462b59;"/>
    <path id="path54" d="M 205.8636,213.1199 C 205.8636,209.1572 195.6809,205.9448 183.1199,205.9448 170.559,205.9448 160.3763,209.1572 160.3763,213.1199 160.3763,217.0826 170.559,220.295 183.1199,220.295 195.6809,220.295 205.8636,217.0826 205.8636,213.1199 Z M 202.2161,213.1199 C 202.2161,209.7927 193.6664,207.0955 183.1199,207.0955 172.5734,207.0955 164.0238,209.7927 164.0238,213.1199 164.0238,216.4471 172.5734,219.1443 183.1199,219.1443 193.6664,219.1443 202.2161,216.4471 202.2161,213.1199 Z" style="fill-rule:evenodd;fill:#69234b;"/>
    <path id="path58" d="M 189.9541,220.0669 L 188.764,218.8768 188.8667,218.8667 188.877,218.7619 190.069,219.9539 189.9644,219.9644 189.9541,220.0669 Z" style="fill-rule:evenodd;fill:#a6227f;"/>
    <path id="path62" d="M 177.3629,207.4756 L 176.1728,206.2855 176.2755,206.2754 176.2858,206.1706 177.4777,207.3626 177.3731,207.3731 177.3629,207.4756 Z" style="fill-rule:evenodd;fill:#a6227f;"/>
    <path id="path66" d="M 189.9748,219.8595 C 190.1829,217.7299 190.295,215.4664 190.295,213.12 190.295,200.559 187.0826,190.3763 183.1199,190.3763 179.1572,190.3763 175.9449,200.559 175.9449,213.12 175.9449,225.6809 179.1572,235.8636 183.1199,235.8636 186.3183,235.8636 189.0279,229.2302 189.9542,220.0668 L 189.8617,219.9746 188.7322,220.0752 C 187.855,227.1823 185.6729,232.2161 183.1199,232.2161 179.7928,232.2161 177.0956,223.6665 177.0956,213.12 177.0956,202.5735 179.7928,194.0238 183.1199,194.0238 186.4471,194.0238 189.1443,202.5735 189.1443,213.12 189.1443,215.084 189.0508,216.9787 188.877,218.7619 L 189.9748,219.8595 Z" style="fill-rule:evenodd;fill:#3f294e;"/>
    <path id="path70" d="M 257.0289,211.4476 L 260.9943,211.4476 260.9943,212.559 257.0289,212.559 257.0289,211.4476 Z" style="fill-rule:evenodd;fill:#2d2c2b;"/>
  </g>
</svg>